<svg width="476" height="476" viewBox="0 0 476 476" fill="none" xmlns="http://www.w3.org/2000/svg">
<g clip-path="url(#clip0_1_214)">
<path d="M237.717 17.425C106.533 17.425 0 101.008 0 203.575C0 256.558 28.333 306.142 77.917 341.558L60.917 438.175C59.784 444.692 62.334 451.208 67.717 454.892C70.55 457.159 74.234 458.009 77.634 458.009C80.467 458.009 83.301 457.442 85.567 456.026L211.084 388.593C220.151 389.443 228.934 389.726 237.717 389.726C368.9 389.726 475.434 306.143 475.434 203.576C475.434 101.009 368.9 17.425 237.717 17.425ZM237.717 355.442C228.65 355.442 219.017 354.875 209.384 354.025C205.984 353.742 202.584 354.308 199.467 356.008L100.3 409.275L113.05 336.458C114.183 329.658 111.35 322.858 105.4 319.175C59.783 289.992 33.717 248.058 33.717 203.575C33.717 119.708 125.234 51.425 237.434 51.425C349.634 51.425 441.151 119.708 441.151 203.575C441.151 287.442 349.917 355.442 237.717 355.442Z" fill="black"/>
</g>
<defs>
<clipPath id="clip0_1_214">
<rect width="475.433" height="475.433" fill="white"/>
</clipPath>
</defs>
</svg>
