<svg width="113" height="113" viewBox="0 0 113 113" fill="none" xmlns="http://www.w3.org/2000/svg">
<path d="M37.6666 18.8334V94.1667M75.3333 18.8334V94.1667M18.8333 37.6667H37.6666M18.8333 75.3334H37.6666M18.8333 56.5H94.1666M75.3333 37.6667H94.1666M75.3333 75.3334H94.1666M18.8333 28.25C18.8333 25.7526 19.8254 23.3574 21.5914 21.5915C23.3574 19.8255 25.7525 18.8334 28.25 18.8334H84.75C87.2474 18.8334 89.6426 19.8255 91.4086 21.5915C93.1745 23.3574 94.1666 25.7526 94.1666 28.25V84.75C94.1666 87.2475 93.1745 89.6427 91.4086 91.4086C89.6426 93.1746 87.2474 94.1667 84.75 94.1667H28.25C25.7525 94.1667 23.3574 93.1746 21.5914 91.4086C19.8254 89.6427 18.8333 87.2475 18.8333 84.75V28.25Z" stroke="black" stroke-width="3" stroke-linecap="round" stroke-linejoin="round"/>
</svg>
