<svg width="39" height="39" viewBox="0 0 39 39" fill="none" xmlns="http://www.w3.org/2000/svg">
<path d="M13 19.5V19.5163M19.5 19.5V19.5163M26 19.5V19.5163M4.875 19.5C4.875 21.4206 5.25329 23.3224 5.98826 25.0967C6.72324 26.8711 7.80051 28.4834 9.15856 29.8414C10.5166 31.1995 12.1289 32.2768 13.9033 33.0117C15.6776 33.7467 17.5794 34.125 19.5 34.125C21.4206 34.125 23.3224 33.7467 25.0967 33.0117C26.8711 32.2768 28.4834 31.1995 29.8414 29.8414C31.1995 28.4834 32.2768 26.8711 33.0117 25.0967C33.7467 23.3224 34.125 21.4206 34.125 19.5C34.125 17.5794 33.7467 15.6776 33.0117 13.9033C32.2768 12.1289 31.1995 10.5166 29.8414 9.15856C28.4834 7.80051 26.8711 6.72324 25.0967 5.98826C23.3224 5.25329 21.4206 4.875 19.5 4.875C17.5794 4.875 15.6776 5.25329 13.9033 5.98826C12.1289 6.72324 10.5166 7.80051 9.15856 9.15856C7.80051 10.5166 6.72324 12.1289 5.98826 13.9033C5.25329 15.6776 4.875 17.5794 4.875 19.5Z" stroke="black" stroke-width="1.5" stroke-linecap="round" stroke-linejoin="round"/>
</svg>
