<svg width="440" height="440" viewBox="0 0 440 440" fill="none" xmlns="http://www.w3.org/2000/svg">
<g clip-path="url(#clip0_1_326)">
<path d="M76.5 191.25V248.625C76.5 269.662 93.712 286.875 114.75 286.875H172.125V271.575V229.5V210.375H114.75V229.5H153V267.75H114.75C103.275 267.75 95.625 260.1 95.625 248.625V191.25C95.625 179.775 103.275 172.125 114.75 172.125H172.125V153H114.75C93.712 153 76.5 170.212 76.5 191.25Z" fill="black"/>
<path d="M191.25 172.125H210.375V267.75H191.25V286.875H248.625V267.75H229.5V172.125H248.625V153H191.25V172.125Z" fill="black"/>
<path d="M382.5 95.625H57.375C24.862 95.625 0 120.487 0 153V286.875C0 319.388 24.862 344.25 57.375 344.25H382.5C415.013 344.25 439.875 319.388 439.875 286.875V153C439.875 120.487 415.013 95.625 382.5 95.625ZM420.75 286.875C420.75 307.912 403.537 325.125 382.5 325.125H57.375C36.337 325.125 19.125 307.912 19.125 286.875V153C19.125 131.962 36.337 114.75 57.375 114.75H382.5C403.537 114.75 420.75 131.962 420.75 153V286.875Z" fill="black"/>
<path d="M267.75 286.875H286.875V229.5H344.25V210.375H286.875V172.125H363.375V153H267.75V286.875Z" fill="black"/>
</g>
<defs>
<clipPath id="clip0_1_326">
<rect width="439.875" height="439.875" fill="white"/>
</clipPath>
</defs>
</svg>
