<svg width="60" height="77" viewBox="0 0 60 77" fill="none" xmlns="http://www.w3.org/2000/svg">
<path d="M17.5714 9.33333H9.28571C7.08821 9.33333 4.9807 10.2113 3.42683 11.7741C1.87296 13.3369 1 15.4565 1 17.6667V67.6667C1 69.8768 1.87296 71.9964 3.42683 73.5592C4.9807 75.122 7.08821 76 9.28571 76H50.7143C52.9118 76 55.0193 75.122 56.5732 73.5592C58.127 71.9964 59 69.8768 59 67.6667V17.6667C59 15.4565 58.127 13.3369 56.5732 11.7741C55.0193 10.2113 52.9118 9.33333 50.7143 9.33333H42.4286M17.5714 9.33333C17.5714 7.1232 18.4444 5.00358 19.9983 3.44078C21.5521 1.87797 23.6596 1 25.8571 1H34.1429C36.3404 1 38.4479 1.87797 40.0017 3.44078C41.5556 5.00358 42.4286 7.1232 42.4286 9.33333M17.5714 9.33333C17.5714 11.5435 18.4444 13.6631 19.9983 15.2259C21.5521 16.7887 23.6596 17.6667 25.8571 17.6667H34.1429C36.3404 17.6667 38.4479 16.7887 40.0017 15.2259C41.5556 13.6631 42.4286 11.5435 42.4286 9.33333" stroke="black" stroke-width="2" stroke-linecap="round" stroke-linejoin="round"/>
<path d="M21.6667 42.6667H16.5417C15.6355 42.6667 14.7665 43.0267 14.1257 43.6674C13.485 44.3082 13.125 45.1772 13.125 46.0834V52.9167C13.125 53.8228 13.485 54.6919 14.1257 55.3326C14.7665 55.9734 15.6355 56.3334 16.5417 56.3334H21.6667V49.5H19.9583M28.5 42.6667V56.3334M35.3333 56.3334V42.6667H43.875M42.1667 49.5H35.3333" stroke="black" stroke-width="2" stroke-linecap="round" stroke-linejoin="round"/>
</svg>
