<svg width="63" height="63" viewBox="0 0 63 63" fill="none" xmlns="http://www.w3.org/2000/svg">
<path d="M56.728 56.508H5.456C2.157 56.508 0 54.041 0 50.893V22.52C0 19.254 2.268 16.495 5.456 16.495H20.611L21.756 11.051C22.431 8.344 24.819 6.492 27.576 6.492H35.153C37.91 6.492 40.299 8.344 40.961 10.997L42.117 16.495H56.728C59.896 16.495 63 19.254 63 22.52V50.893C63 54.094 60.061 56.508 56.728 56.508ZM5.456 19.496C3.92 19.496 3 20.909 3 22.52V50.893C3 52.408 3.785 53.507 5.456 53.507H56.728C58.377 53.507 60 52.408 60 50.893V22.52C60 20.909 58.244 19.496 56.728 19.496H40.899C40.189 19.496 39.577 18.999 39.432 18.305L38.038 11.669C37.723 10.411 36.531 9.493 35.153 9.493H27.576C26.198 9.493 25.007 10.411 24.679 11.723L23.297 18.305C23.151 18.999 22.539 19.496 21.829 19.496H5.456Z" fill="black"/>
<path d="M30.7619 45.981C25.2509 45.981 20.7679 41.496 20.7679 35.985C20.7679 30.472 25.2509 25.988 30.7619 25.988C36.2709 25.988 40.7549 30.472 40.7549 35.985C40.7549 41.496 36.2709 45.981 30.7619 45.981ZM30.7619 28.989C26.9049 28.989 23.7679 32.127 23.7679 35.985C23.7679 39.842 26.9049 42.98 30.7619 42.98C34.6179 42.98 37.7549 39.842 37.7549 35.985C37.7549 32.127 34.6179 28.989 30.7619 28.989Z" fill="black"/>
<path d="M30.762 51.34C22.297 51.34 15.41 44.451 15.41 35.985C15.41 27.517 22.297 20.629 30.762 20.629C39.226 20.629 46.112 27.517 46.112 35.985C46.112 44.451 39.226 51.34 30.762 51.34ZM30.762 23.629C23.951 23.629 18.41 29.172 18.41 35.985C18.41 42.797 23.951 48.339 30.762 48.339C37.572 48.339 43.112 42.797 43.112 35.985C43.112 29.172 37.572 23.629 30.762 23.629Z" fill="black"/>
<path d="M17.573 13.494H9.573C8.745 13.494 8.073 12.822 8.073 11.994C8.073 11.166 8.745 10.494 9.573 10.494H17.573C18.401 10.494 19.073 11.166 19.073 11.994C19.073 12.822 18.401 13.494 17.573 13.494Z" fill="black"/>
<path d="M49.433 11.494H50.055C52.434 11.494 54 13.375 54 15.755V17.496H46V15.755C46 13.375 47.054 11.494 49.433 11.494Z" fill="black"/>
</svg>
