<svg width="39" height="39" viewBox="0 0 39 39" fill="none" xmlns="http://www.w3.org/2000/svg">
<path d="M22.75 4.875V11.375C22.75 11.806 22.9212 12.2193 23.226 12.524C23.5307 12.8288 23.944 13 24.375 13H30.875M22.75 4.875H11.375C10.513 4.875 9.6864 5.21741 9.0769 5.8269C8.46741 6.4364 8.125 7.26305 8.125 8.125V19.5M22.75 4.875L30.875 13M30.875 13V19.5M32.5 24.375H30.875C30.013 24.375 29.1864 24.7174 28.5769 25.3269C27.9674 25.9364 27.625 26.763 27.625 27.625V30.875C27.625 31.737 27.9674 32.5636 28.5769 33.1731C29.1864 33.7826 30.013 34.125 30.875 34.125H32.5V29.25M8.125 29.25H10.5625C11.209 29.25 11.829 28.9932 12.2861 28.5361C12.7432 28.079 13 27.459 13 26.8125C13 26.166 12.7432 25.546 12.2861 25.0889C11.829 24.6318 11.209 24.375 10.5625 24.375H8.125V34.125M17.875 34.125V24.375L22.75 34.125V24.375" stroke="black" stroke-width="1.5" stroke-linecap="round" stroke-linejoin="round"/>
</svg>
