<svg width="25" height="25" viewBox="0 0 25 25" fill="none" xmlns="http://www.w3.org/2000/svg">
<g clip-path="url(#clip0_1_464)">
<path d="M12.5 1.5625C18.5938 1.5625 23.4375 6.40625 23.4375 12.5C23.4375 18.5938 18.5938 23.4375 12.5 23.4375C6.40625 23.4375 1.5625 18.5938 1.5625 12.5C1.5625 6.40625 6.40625 1.5625 12.5 1.5625ZM12.5 0C5.625 0 0 5.625 0 12.5C0 19.375 5.625 25 12.5 25C19.375 25 25 19.375 25 12.5C25 5.625 19.375 0 12.5 0Z" fill="#444444"/>
<path d="M12.5 20.625C9.375 20.625 6.5625 18.75 5.3125 15.7813L6.71875 15.1562C7.65625 17.5 10 18.9063 12.5 18.9063C15 18.9063 17.3437 17.3437 18.2812 15.1562L19.6875 15.7813C18.4375 18.9063 15.625 20.625 12.5 20.625Z" fill="#444444"/>
<path d="M10.9375 9.375C10.9375 10.2375 10.2375 10.9375 9.375 10.9375C8.5125 10.9375 7.8125 10.2375 7.8125 9.375C7.8125 8.5125 8.5125 7.8125 9.375 7.8125C10.2375 7.8125 10.9375 8.5125 10.9375 9.375Z" fill="#444444"/>
<path d="M17.1875 9.375C17.1875 10.2375 16.4875 10.9375 15.625 10.9375C14.7625 10.9375 14.0625 10.2375 14.0625 9.375C14.0625 8.5125 14.7625 7.8125 15.625 7.8125C16.4875 7.8125 17.1875 8.5125 17.1875 9.375Z" fill="#444444"/>
</g>
<defs>
<clipPath id="clip0_1_464">
<rect width="25" height="25" fill="white"/>
</clipPath>
</defs>
</svg>
