<svg width="24" height="24" viewBox="0 0 24 24" fill="none" xmlns="http://www.w3.org/2000/svg">
<path d="M20 11.5V7.5C20 5.567 18.433 4 16.5 4H7.5C5.567 4 4 5.567 4 7.5V16.5C4 18.433 5.567 20 7.5 20H12.5C13.3284 20 14 19.3284 14 18.5V16.5C14 14.567 15.567 13 17.5 13H18.5C19.3284 13 20 12.3284 20 11.5ZM19.9266 13.5533C19.5221 13.8349 19.0303 14 18.5 14H17.5C16.1193 14 15 15.1193 15 16.5V18.5C15 18.9223 14.8953 19.3201 14.7104 19.669C17.449 18.8255 19.5187 16.456 19.9266 13.5533ZM7.5 3H16.5C18.9853 3 21 5.01472 21 7.5V12.5C21 17.1944 17.1944 21 12.5 21H7.5C5.01472 21 3 18.9853 3 16.5V7.5C3 5.01472 5.01472 3 7.5 3Z" fill="black"/>
</svg>
