<svg width="47" height="47" viewBox="0 0 47 47" fill="none" xmlns="http://www.w3.org/2000/svg">
<path d="M9.79167 13.7084H11.75C12.7888 13.7084 13.785 13.2957 14.5195 12.5612C15.254 11.8267 15.6667 10.8305 15.6667 9.79171C15.6667 9.27233 15.873 8.77422 16.2402 8.40696C16.6075 8.0397 17.1056 7.83337 17.625 7.83337H29.375C29.8944 7.83337 30.3925 8.0397 30.7598 8.40696C31.127 8.77422 31.3333 9.27233 31.3333 9.79171C31.3333 10.8305 31.746 11.8267 32.4805 12.5612C33.215 13.2957 34.2112 13.7084 35.25 13.7084H37.2083C38.2471 13.7084 39.2433 14.121 39.9778 14.8555C40.7124 15.5901 41.125 16.5863 41.125 17.625V35.25C41.125 36.2888 40.7124 37.285 39.9778 38.0195C39.2433 38.7541 38.2471 39.1667 37.2083 39.1667H9.79167C8.7529 39.1667 7.75668 38.7541 7.02216 38.0195C6.28765 37.285 5.875 36.2888 5.875 35.25V17.625C5.875 16.5863 6.28765 15.5901 7.02216 14.8555C7.75668 14.121 8.7529 13.7084 9.79167 13.7084Z" stroke="black" stroke-width="1.5" stroke-linecap="round" stroke-linejoin="round"/>
<path d="M17.625 25.4584C17.625 27.0165 18.244 28.5109 19.3457 29.6126C20.4475 30.7144 21.9419 31.3334 23.5 31.3334C25.0581 31.3334 26.5525 30.7144 27.6543 29.6126C28.756 28.5109 29.375 27.0165 29.375 25.4584C29.375 23.9002 28.756 22.4059 27.6543 21.3041C26.5525 20.2023 25.0581 19.5834 23.5 19.5834C21.9419 19.5834 20.4475 20.2023 19.3457 21.3041C18.244 22.4059 17.625 23.9002 17.625 25.4584Z" stroke="black" stroke-width="1.5" stroke-linecap="round" stroke-linejoin="round"/>
</svg>
